<?xml version="1.0" standalone="no"?>
<!DOCTYPE svg PUBLIC "-//W3C//DTD SVG 20010904//EN"
 "http://www.w3.org/TR/2001/REC-SVG-20010904/DTD/svg10.dtd">
<svg version="1.0" xmlns="http://www.w3.org/2000/svg"
 width="498.000000pt" height="151.000000pt" viewBox="0 0 498.000000 151.000000"
 preserveAspectRatio="xMidYMid meet">

<g transform="translate(0.000000,151.000000) scale(0.100000,-0.100000)"
fill="#000000" stroke="none">
<path d="M0 755 l0 -755 2490 0 2490 0 0 755 0 755 -2490 0 -2490 0 0 -755z
m3590 175 l0 -300 -55 0 -55 0 0 300 0 300 55 0 55 0 0 -300z m-2050 240 l0
-50 -55 0 -55 0 0 50 0 50 55 0 55 0 0 -50z m-828 -233 c59 -149 110 -280 114
-290 6 -16 1 -18 -51 -15 l-58 3 -25 68 -25 67 -121 0 -122 0 -24 -67 -25 -68
-59 -3 c-53 -3 -58 -1 -52 15 4 10 55 141 114 290 l107 273 60 0 60 0 107
-273z m2553 254 c75 -34 105 -85 105 -177 0 -68 -18 -112 -59 -147 -42 -35
-89 -47 -183 -47 l-78 0 0 -95 0 -95 -55 0 -55 0 0 290 0 290 143 0 c117 0
149 -4 182 -19z m-2093 -131 c48 -14 97 -55 114 -97 10 -22 14 -78 14 -183 l0
-150 -55 0 -55 0 0 155 c0 152 0 155 -24 170 -17 11 -42 15 -83 13 l-58 -3 -3
-167 -2 -168 -55 0 -55 0 0 196 0 195 37 15 c74 31 164 41 225 24z m773 -5
c35 -13 49 -13 113 1 115 26 192 4 246 -69 19 -26 21 -44 24 -193 l3 -164 -55
0 -56 0 0 150 c0 185 -3 190 -109 190 l-70 0 10 -32 c5 -18 9 -95 9 -170 l0
-138 -55 0 -55 0 0 150 c0 182 -4 190 -99 190 l-58 0 -7 -61 c-3 -34 -6 -111
-6 -170 l0 -109 -50 0 -50 0 0 196 0 195 37 15 c80 34 167 41 228 19z m758 1
c75 -27 115 -89 119 -183 l3 -58 -137 -3 c-131 -2 -138 -4 -138 -23 0 -11 11
-31 25 -44 21 -21 33 -25 87 -25 35 1 80 7 101 14 l38 14 -3 -46 c-3 -43 -5
-46 -43 -60 -22 -8 -71 -15 -110 -15 -91 -2 -147 27 -183 93 -20 39 -23 56
-20 130 3 94 25 149 70 183 47 35 128 45 191 23z m1281 -14 c48 -28 74 -74 82
-148 20 -188 -36 -268 -186 -268 -115 0 -180 52 -180 142 0 96 60 141 187 142
67 0 71 1 66 21 -12 44 -88 57 -191 32 -22 -5 -23 -3 -20 38 3 43 4 44 48 56
57 16 154 8 194 -15z m-2444 -197 l0 -215 -55 0 -55 0 0 215 0 215 55 0 55 0
0 -215z m2733 103 c20 -62 39 -125 42 -141 4 -15 10 -29 14 -32 4 -2 27 61 51
140 l44 145 58 0 57 0 -28 -77 c-16 -43 -57 -152 -90 -242 -33 -90 -71 -182
-83 -204 -28 -50 -80 -87 -124 -87 -55 0 -64 8 -64 56 0 43 0 43 29 38 24 -5
35 -1 55 21 51 55 51 62 -34 288 l-78 207 58 0 57 0 36 -112z"/>
<path d="M540 1077 c0 -3 -18 -51 -39 -106 l-39 -101 83 0 83 0 -39 102 c-37
95 -49 120 -49 105z"/>
<path d="M3050 1015 l0 -95 81 0 c44 0 89 4 99 10 24 13 43 72 35 110 -11 52
-47 70 -136 70 l-79 0 0 -95z"/>
<path d="M2592 970 c-12 -5 -27 -21 -32 -35 -20 -53 -17 -55 75 -55 47 0 85 3
85 6 0 22 -37 77 -57 85 -29 11 -41 11 -71 -1z"/>
<path d="M3822 824 c-50 -35 -12 -104 58 -104 53 0 80 27 80 80 l0 40 -58 0
c-36 0 -66 -6 -80 -16z"/>
</g>
</svg>
